<?xml version="1.0" encoding="iso-8859-1"?>
<!-- Generator: Adobe Illustrator 19.0.0, SVG Export Plug-In . SVG Version: 6.00 Build 0)  -->
<svg version="1.1" id="Layer_1" xmlns="http://www.w3.org/2000/svg" xmlns:xlink="http://www.w3.org/1999/xlink" x="0px" y="0px"
	 viewBox="0 0 473.654 473.654" style="enable-background:new 0 0 473.654 473.654;" xml:space="preserve">
<circle style="fill:#65A844;" cx="236.827" cy="236.827" r="236.827"/>
<path style="fill:#FFFFFF;" d="M392.274,207.999c-84.9,0-169.799,0-254.702,0c11.084-11.08,22.164-22.164,33.245-33.245
	c25.56-25.564-14.259-65.084-39.886-39.46c-27.011,27.011-54.018,54.022-81.029,81.033c-10.841,10.845-10.546,28.907,0.217,39.669
	c27.011,27.007,54.018,54.018,81.029,81.025c25.564,25.56,65.08-14.259,39.456-39.883c-11.013-11.013-22.03-22.026-33.039-33.039
	c84.769,0,169.541,0,254.313,0C428.091,264.104,428.413,207.999,392.274,207.999z"/>
<g>
</g>
<g>
</g>
<g>
</g>
<g>
</g>
<g>
</g>
<g>
</g>
<g>
</g>
<g>
</g>
<g>
</g>
<g>
</g>
<g>
</g>
<g>
</g>
<g>
</g>
<g>
</g>
<g>
</g>
</svg>
